<?xml version="1.0" encoding="UTF-8"?>
<svg width="60px" height="60px" viewBox="0 0 60 60" version="1.1" xmlns="http://www.w3.org/2000/svg" xmlns:xlink="http://www.w3.org/1999/xlink">
    <title>noun-add-6306722</title>
    <g id="Page-1" stroke="none" stroke-width="1" fill="none" fill-rule="evenodd">
        <g id="Medium-Copy-4" transform="translate(-521, -387)" fill="#262629">
            <g id="noun-add-6306722" transform="translate(521, 387)">
                <path d="M47.9502,1.55654 C47.7432,0.64607 46.9337,0 46,0 C45.0663,0 44.2568,0.64607 44.0498,1.55654 L42.9432,6.42294 C42.4314,8.6738 40.6738,10.4314 38.4229,10.9432 L33.5565,12.0498 C32.6461,12.2568 32,13.0663 32,14 C32,14.9337 32.6461,15.7432 33.5565,15.9502 L38.4229,17.0568 C40.6738,17.5686 42.4314,19.3262 42.9432,21.5771 L44.0498,26.4435 C44.2568,27.3539 45.0663,28 46,28 C46.9337,28 47.7432,27.3539 47.9502,26.4435 L49.0568,21.5771 C49.5686,19.3262 51.3262,17.5686 53.5771,17.0568 L58.4435,15.9502 C59.3539,15.7432 60,14.9337 60,14 C60,13.0663 59.3539,12.2568 58.4435,12.0498 L53.5771,10.9432 C51.3262,10.4314 49.5686,8.6738 49.0568,6.42294 L47.9502,1.55654 Z M41.6384,14 C43.5142,13.0427 45.0427,11.5142 46,9.6384 C46.9573,11.5142 48.4858,13.0427 50.3616,14 C48.4858,14.9573 46.9573,16.4858 46,18.3616 C45.0427,16.4858 43.5142,14.9573 41.6384,14 Z" id="Shape"></path>
                <path d="M25,10 C11.1929,10 0,21.1929 0,35 C0,48.8071 11.1929,60 25,60 C38.8071,60 50,48.8071 50,35 C50,33.8954 49.1046,33 48,33 C46.8954,33 46,33.8954 46,35 C46,46.598 36.598,56 25,56 C13.402,56 4,46.598 4,35 C4,23.402 13.402,14 25,14 C26.1046,14 27,13.1046 27,12 C27,10.8954 26.1046,10 25,10 Z" id="Path" fill-rule="nonzero"></path>
                <path d="M11,35 C11,33.8954 11.8954,33 13,33 L23,33 L23,23 C23,21.8954 23.8954,21 25,21 C26.1046,21 27,21.8954 27,23 L27,33 L37,33 C38.1046,33 39,33.8954 39,35 C39,36.1046 38.1046,37 37,37 L27,37 L27,47 C27,48.1046 26.1046,49 25,49 C23.8954,49 23,48.1046 23,47 L23,37 L13,37 C11.8954,37 11,36.1046 11,35 Z" id="Path" fill-rule="nonzero"></path>
            </g>
        </g>
    </g>
</svg>