<?xml version="1.0" encoding="UTF-8"?>
<svg width="8px" height="13px" viewBox="0 0 8 13" version="1.1" xmlns="http://www.w3.org/2000/svg" xmlns:xlink="http://www.w3.org/1999/xlink">
    <title>􀆈 copy 7</title>
    <g id="Page-1" stroke="none" stroke-width="1" fill="none" fill-rule="evenodd">
        <g id="Medium-Copy-12" transform="translate(-69, -74)" fill="#424245" fill-rule="nonzero">
            <g id="􀆈-copy-7" transform="translate(72.6655, 80.7964) rotate(-270) translate(-72.6655, -80.7964)translate(66.6123, 77.3203)">
                <path d="M6.05664063,6.95214844 C6.2890625,6.95214844 6.50097656,6.86328125 6.671875,6.67871094 L11.8808594,1.35351563 C12.03125,1.203125 12.1064453,1.01855469 12.1064453,0.79296875 C12.1064453,0.348632813 11.7578125,4.12630687e-13 11.3203125,4.12630687e-13 C11.1015625,4.12630687e-13 10.8964844,0.0888671875 10.7460938,0.239257813 L6.05664063,5.04492188 L1.3671875,0.239257813 C1.20996094,0.0888671875 1.01171875,4.12630687e-13 0.79296875,4.12630687e-13 C0.348632812,4.12630687e-13 0,0.348632813 0,0.79296875 C0,1.01171875 0.08203125,1.203125 0.232421875,1.35351563 L5.44140625,6.67871094 C5.61914062,6.86328125 5.82421875,6.95214844 6.05664063,6.95214844 Z" id="Path"></path>
            </g>
        </g>
    </g>
</svg>