<?xml version="1.0" encoding="UTF-8"?>
<svg width="154px" height="154px" viewBox="0 0 154 154" version="1.1" xmlns="http://www.w3.org/2000/svg" xmlns:xlink="http://www.w3.org/1999/xlink">
    <title>noun-key-6034510</title>
    <defs>
        <rect id="path-1" x="0" y="0" width="130" height="130" rx="65"></rect>
        <filter x="-14.6%" y="-13.1%" width="129.2%" height="129.2%" filterUnits="objectBoundingBox" id="filter-2">
            <feMorphology radius="2" operator="dilate" in="SourceAlpha" result="shadowSpreadOuter1"></feMorphology>
            <feOffset dx="0" dy="2" in="shadowSpreadOuter1" result="shadowOffsetOuter1"></feOffset>
            <feGaussianBlur stdDeviation="4" in="shadowOffsetOuter1" result="shadowBlurOuter1"></feGaussianBlur>
            <feColorMatrix values="0 0 0 0 0   0 0 0 0 0   0 0 0 0 0  0 0 0 0.102600524 0" type="matrix" in="shadowBlurOuter1"></feColorMatrix>
        </filter>
    </defs>
    <g id="Page-1" stroke="none" stroke-width="1" fill="none" fill-rule="evenodd">
        <g id="Medium-Copy-4" transform="translate(-644, -34)">
            <g id="Group" transform="translate(656, 44)">
                <g id="Rectangle">
                    <use fill="black" fill-opacity="1" filter="url(#filter-2)" xlink:href="#path-1"></use>
                    <use fill="#FDFDFD" fill-rule="evenodd" xlink:href="#path-1"></use>
                </g>
                <path d="M90.2825999,52.4190257 C86.74726,46.2807326 78.9173795,44.1775845 72.7938441,47.7215552 C68.6926244,50.0950853 66.393514,54.4001759 66.3899293,58.8396362 C66.3891611,59.7557112 65.9011219,60.6022271 65.1096584,61.060393 L38,76.7499425 L38,84 L43.1210834,84 L43.1210834,81.4332445 C43.1210834,80.0156255 44.2674891,78.8664891 45.6816251,78.8664891 L50.8699739,78.8664891 L50.8699739,76.2997336 C50.8699739,74.8821145 52.0165845,73.7329781 53.4305156,73.7329781 L64.2098841,73.7329781 L70.151109,69.999889 C70.9538388,69.4955215 71.9685815,69.4765275 72.7894911,69.9506072 C76.6264629,72.1672573 81.4953329,72.3238294 85.5965525,69.9503506 C91.720088,66.4064313 93.8179398,58.5572931 90.2825999,52.4190257 Z M53.473835,83.8949788 L48.3051181,83.8949788 L48.3051181,86.4474894 C48.3051181,87.857241 47.1630757,89 45.7542651,89 L35.550853,89 C34.8743413,89 34.2255063,88.7309654 33.7471448,88.2523696 C33.2687579,87.7737739 33,87.1244152 33,86.4474894 L33,75.2115929 C33,74.2995809 33.4861926,73.4569971 34.2754265,73.0011187 L61.347553,57.3606099 C61.8283888,51.7427638 64.9554796,46.4342309 70.2130427,43.3967943 C78.7532986,38.4627913 89.6740105,41.3908273 94.6048094,49.9367604 C99.5356083,58.4826936 96.6092697,69.4102468 88.0690138,74.3442498 C82.8308372,77.3705064 76.6990967,77.4368717 71.607594,75.0714601 L66.3005443,78.4001892 C65.8944485,78.6549297 65.4248365,78.7899575 64.9457863,78.7899575 L56.0246881,78.7899575 L56.0246881,81.3424682 C56.0246881,82.7522198 54.8826712,83.8949788 53.473835,83.8949788 Z M83.5,54 C84.88075,54 86,55.11925 86,56.5 C86,57.88075 84.88075,59 83.5,59 C82.11925,59 81,57.88075 81,56.5 C81,55.11925 82.11925,54 83.5,54 Z" id="Shape" fill="#A339DA"></path>
            </g>
        </g>
    </g>
</svg>