<?xml version="1.0" encoding="UTF-8"?>
<svg width="16px" height="9px" viewBox="0 0 16 9" version="1.1" xmlns="http://www.w3.org/2000/svg" xmlns:xlink="http://www.w3.org/1999/xlink">
    <title>Shape</title>
    <g id="Page-1" stroke="none" stroke-width="1" fill="none" fill-rule="evenodd">
        <g id="Medium-Copy-12" transform="translate(-86, -323)" fill="#424245" fill-rule="nonzero">
            <g id="Group" transform="translate(68, 247)">
                <g id="ô ±" transform="translate(18.4939, 76.8496)">
                    <path d="M0.17018145,3.515625 C-0.0407560498,3.75585938 -0.0700529248,4.09570312 0.164322075,4.32421875 L1.96900958,6.13476562 C2.20338458,6.36914062 2.56080645,6.35742188 2.7834627,6.12890625 L3.68580645,5.2265625 L5.0100252,6.54492188 C5.23268145,6.7734375 5.59010333,6.76757812 5.81861895,6.5390625 L7.05494708,5.31445312 C7.8225252,6.92578125 9.14088458,7.83398438 10.693619,7.83398438 C12.8615877,7.83398438 14.6018221,6.08789062 14.6018221,3.91992188 C14.6018221,1.74609375 12.8674471,0 10.693619,0 C9.12916583,0 7.7287752,0.90234375 7.10768145,2.32617188 L1.57057208,2.32617188 C1.3772127,2.32617188 1.15455645,2.38476562 1.00807208,2.56054688 L0.17018145,3.515625 Z M1.09010333,3.91992188 L1.74049395,3.27539062 L7.78150958,3.27539062 C8.09791583,1.89257812 9.28150958,0.9375 10.693619,0.9375 C12.334244,0.9375 13.6584627,2.26757812 13.6584627,3.91992188 C13.6584627,5.56640625 12.3401033,6.890625 10.693619,6.890625 C9.2990877,6.890625 8.09791583,5.9296875 7.74635333,4.45898438 L6.5569002,4.45898438 L5.4084627,5.60742188 L4.17799395,4.36523438 L3.21119708,4.36523438 L2.3850252,5.19726562 L1.09010333,3.91992188 Z M10.8694002,3.91992188 C10.8694002,4.44726562 11.2971346,4.875 11.8244783,4.875 C12.3518221,4.875 12.7736971,4.44726562 12.7736971,3.91992188 C12.7736971,3.38671875 12.3518221,2.97070312 11.8244783,2.97070312 C11.2971346,2.97070312 10.8694002,3.39257812 10.8694002,3.91992188 Z" id="Shape"></path>
                </g>
            </g>
        </g>
    </g>
</svg>