<?xml version="1.0" encoding="UTF-8"?>
<svg width="13px" height="13px" viewBox="0 0 13 13" version="1.1" xmlns="http://www.w3.org/2000/svg" xmlns:xlink="http://www.w3.org/1999/xlink">
    <title>􀉣</title>
    <g id="Page-1" stroke="none" stroke-width="1" fill="none" fill-rule="evenodd">
        <g id="Medium-Copy-12" transform="translate(-88, -298)" fill="#424245" fill-rule="nonzero">
            <g id="Group" transform="translate(68, 247)">
                <g id="􀉣" transform="translate(20.3484, 51.4963)">
                    <path d="M6.13989372,8.640382 L6.9191906,7.84936637 C6.1457531,7.79077262 5.64184685,7.55639762 5.26098747,7.17553825 C4.23559685,6.15014762 4.24145622,4.69702262 5.2551281,3.68335075 L7.16528435,1.7731945 C8.19067497,0.753663247 9.63208122,0.747803872 10.6574718,1.7731945 C11.6828625,2.79858512 11.6711437,4.24585075 10.6574718,5.25952262 L9.50903435,6.40796012 C9.67309685,6.78296012 9.7082531,7.21655387 9.64965935,7.59741325 L11.3723156,5.88061637 C12.7727062,4.47436637 12.784425,2.48803825 11.3664562,1.06421012 C9.9426281,-0.359618003 7.9504406,-0.347899253 6.5441906,1.05835075 L4.54614372,3.062257 C3.13989372,4.468507 3.12817497,6.4606945 4.5520031,7.87866325 C4.92114372,8.24780387 5.38989372,8.51147575 6.13989372,8.640382 Z M6.2863781,3.812257 L5.50708122,4.60327262 C6.28051872,4.66772575 6.78442497,4.89624137 7.16528435,5.27710075 C8.19067497,6.30249137 8.1848156,7.75561637 7.17114372,8.76928825 L5.2551281,10.6794445 C4.23559685,11.6989757 2.7941906,11.7048351 1.76879997,10.6853039 C0.743409345,9.65405387 0.74926872,8.21264762 1.76879997,7.19311637 L2.91723747,6.04467887 C2.75317497,5.67553825 2.71215935,5.23608512 2.77661247,4.85522575 L1.05395622,6.57202262 C-0.346434405,7.97827262 -0.358153155,9.97046012 1.0598156,11.3884289 C2.48364372,12.812257 4.47583122,12.8005382 5.87622185,11.4001476 L7.8801281,9.390382 C9.2863781,7.984132 9.29809685,5.9919445 7.87426872,4.57397575 C7.5051281,4.20483512 7.0363781,3.94116325 6.2863781,3.812257 Z" id="Shape"></path>
                </g>
            </g>
        </g>
    </g>
</svg>