<?xml version="1.0" encoding="UTF-8"?>
<svg width="82px" height="43px" viewBox="0 0 82 43" version="1.1" xmlns="http://www.w3.org/2000/svg" xmlns:xlink="http://www.w3.org/1999/xlink">
    <title>noun-view-6716251</title>
    <g id="Page-1" stroke="none" stroke-width="1" fill="none" fill-rule="evenodd">
        <g id="Medium-Copy-4" transform="translate(-850, -396)" fill="#161617" fill-rule="nonzero" stroke="#161617" stroke-width="0.5">
            <g id="noun-view-6716251" transform="translate(851, 397)">
                <path d="M79.6444402,19.4771015 C77.0406997,16.2249977 62.8847749,0 40,0 C17.1104843,0 2.95920544,16.224695 0.35555977,19.4771015 C-0.118519923,20.0644419 -0.118519923,20.9355884 0.35555977,21.5228985 C2.95930026,24.7750023 17.1152251,41 40,41 C62.8895157,41 77.0407946,24.775305 79.6444402,21.5228985 C80.1185199,20.9355581 80.1185199,20.0644116 79.6444402,19.4771015 Z M56.2960154,20.4980322 C56.2960154,30.0610963 48.9848532,37.8428548 39.9990518,37.8428548 C31.0132505,37.8428548 23.7020883,30.0616009 23.7020883,20.4980322 C23.7020883,10.9344636 31.0132505,3.15320963 39.9990518,3.15320963 C48.9848532,3.15320963 56.2960154,10.9344636 56.2960154,20.4980322 L56.2960154,20.4980322 Z M3.46172992,20.4980322 C6.47659232,17.0212974 14.7988717,8.64486221 27.4729182,4.95954151 C23.3580961,8.72014285 20.7394695,14.286067 20.7394695,20.4980322 C20.7394695,26.7099975 23.3580013,32.2724905 27.4729182,36.0365229 C14.7988717,32.3508995 6.4759286,23.9785007 3.46172992,20.4980322 L3.46172992,20.4980322 Z M52.5251855,36.0365229 C56.6400076,32.2759216 59.2586342,26.7099975 59.2586342,20.4980322 C59.2586342,14.286067 56.6401024,8.72357387 52.5251855,4.95954151 C65.199232,8.64516494 73.5221751,17.0175637 76.5363738,20.4980322 C73.5215114,23.974767 65.199232,32.3512022 52.5251855,36.0365229 L52.5251855,36.0365229 Z M29.6290326,20.4980322 C29.6290326,19.6268757 30.2920046,18.921276 31.1105317,18.921276 C31.9290587,18.921276 32.5920307,19.6268757 32.5920307,20.4980322 C32.5920307,24.8459437 35.9142864,28.3818131 39.9995259,28.3818131 C44.0847654,28.3818131 47.4070211,24.8459437 47.4070211,20.4980322 C47.4070211,16.1501207 44.0847654,12.6142513 39.9995259,12.6142513 C39.1809989,12.6142513 38.5180269,11.9086516 38.5180269,11.0374951 C38.5180269,10.1663386 39.1809989,9.46073892 39.9995259,9.46073892 C45.7180648,9.46073892 50.3704933,14.4117029 50.3704933,20.4985368 C50.3704933,26.5853707 45.7186337,31.5363346 39.9995259,31.5363346 C34.2804181,31.5363346 29.6285586,26.5853707 29.6285586,20.4985368 L29.6290326,20.4980322 Z" id="Shape"></path>
            </g>
        </g>
    </g>
</svg>